<?xml version="1.0" encoding="iso-8859-1"?>
<!-- Uploaded to: SVG Repo, www.svgrepo.com, Generator: SVG Repo Mixer Tools -->
<svg xmlns="http://www.w3.org/2000/svg" xmlns:xlink="http://www.w3.org/1999/xlink" version="1.1" id="Layer_1"  viewBox="0 0 464.033 464.033" xml:space="preserve" width="512" height="512">
<g>
	<polygon style="fill:#EFEFEF;" points="374.152,245.136 429.734,189.54 456.029,215.834 400.446,271.429  "/>
	<polygon style="fill:#EFEFEF;" points="213.104,84.087 192.614,63.583 248.195,8.001 274.489,34.294 218.631,90.163  "/>
	<path style="fill:#EFEFEF;" d="M152.489,194.005c-12.368-7.422-25.247-14.104-38.277-19.862l-8.14-3.597l4.44-7.713   c11.211-19.472,32.184-31.568,54.733-31.568c11.981,0,23.685,3.451,33.845,9.979c0.973,0.626,1.942,1.26,2.913,1.894l9.625,6.286   l-8.967,6.871c-1.418,1.085-5.725,4.334-5.725,4.334c-10.445,7.838-21.225,15.927-34.161,31.606l-4.382,5.312L152.489,194.005z"/>
	<path style="fill:#EFEFEF;" d="M289.888,349.822c-5.634-12.737-12.116-25.285-19.267-37.294l-3.516-5.905l5.308-4.365   c15.792-12.992,23.923-23.813,31.786-34.278c1.414-1.888,2.804-3.735,4.225-5.582l6.886-8.95l6.16,9.464   c0.444,0.684,0.887,1.363,1.321,2.044c9.781,15.216,12.514,33.952,7.479,51.38c-4.547,15.783-14.871,28.988-29.068,37.181   l-7.713,4.45L289.888,349.822z"/>
	<path style="fill:#61ACD2;" d="M160.905,454.91c-20.097-2.354-47.283-9.074-62.679-27.723   c-10.824-13.095-14.282-30.294-10.277-51.114c-5.601,1.085-10.994,1.631-16.033,1.631c-16.116,0-29.019-5.211-39.446-15.932   C16.874,345.737,11.14,321.015,9.078,303.1l-2.055-17.845l14.639,10.41c30.792,21.897,71.074,29.986,72.774,30.319   c18.518-26.512,23.508-43.086,28.333-59.115c5.074-16.849,9.845-32.689,28.366-59.215c2.49-3.576,5.019-7.028,7.51-10.252   c14.825-19.144,26.188-27.687,38.22-36.73c4.743-3.557,9.595-7.195,14.57-11.479c0.062-0.053,5.646-4.854,8.379-7.338   c8.438-7.692,13.204-16.958,13.413-26.084c0.176-7.389-2.749-14.31-8.459-20.019l-5.865-5.868l55.582-55.583l24.968,24.967   c7.204,7.205,17.123,11.337,27.213,11.337c0.452,0,5.374-0.23,5.899-0.23c13.584,0,28.083,7.02,40.827,19.765   c14.563,14.551,22.956,32.207,21.899,46.073c-0.667,8.675-0.121,18.764,8.98,27.866l25.455,25.468l-55.496,55.509l-5.656-5.487   c-5.504-5.34-12.14-8.162-19.189-8.162c-9.597,0-19.493,5.184-27.187,14.23c-1.338,1.788-6.662,7.958-6.662,7.958   c-4.237,4.939-7.846,9.742-11.336,14.387c-9.088,12.09-17.665,23.499-36.947,38.386c-3.104,2.394-6.483,4.868-10.047,7.357   c-26.54,18.543-42.388,23.313-59.166,28.362c-16.079,4.841-32.653,9.83-59.155,28.337c0.306,1.675,7.785,41.304,29.478,71.917   l10.39,14.661L160.905,454.91z"/>
	<g>
		<path d="M461.685,210.185l-51.76-51.76c-5.55-5.55-7.42-11.61-6.66-21.6c1.23-16.12-8.05-36.18-24.21-52.35    c-18.27-18.26-35.37-22.1-46.49-22.1c-1.21,0-5.3,0.23-6.14,0.22c-7.88-0.08-15.66-3.33-21.32-8.99l-51.25-51.26    c-3.13-3.12-8.19-3.12-11.32,0l-55.58,55.59c-3.13,3.12-3.13,8.19,0,11.31l32.16,32.17c4.18,4.18,6.24,8.95,6.12,14.17    c-0.16,6.82-4.1,14.24-10.82,20.36c-1.27,1.16-2.52,2.27-3.75,3.34c-2.39-1.61-4.81-3.2-7.25-4.77    c-11.46-7.36-24.66-11.25-38.17-11.25c-28.91,0-54.72,17.24-65.78,43.93l-0.26,0.64c-1.68,4.08,0.26,8.75,4.34,10.44    c14.87,6.16,29.37,13.44,43.25,21.66c-0.74,1.03-3.52,5.02-4.15,5.93c-17.69,25.98-22.68,42.58-27.52,58.65    c-4.57,15.19-8.9,29.59-24.21,52.46c-14.01-3.45-53.74-14.89-77.24-38.39c-2.26-2.25-5.64-2.95-8.61-1.77    c-2.96,1.17-4.95,4-5.04,7.19c-0.07,2.22-1.29,54.51,26.67,83.3c11.85,12.21,27.06,18.4,45.22,18.4c2.18,0,4.41-0.1,6.68-0.28    c-1.48,18.5,3.03,34.22,13.46,46.86c24.18,29.28,73,31.62,85.12,31.74c0.39,0.01,2.85-0.01,2.85-0.01c3.19-0.1,6.02-2.09,7.2-5.05    c1.17-2.97,0.48-6.35-1.78-8.61c-23.39-23.39-34.33-62.55-37.6-76.37c22.9-15.33,37.3-19.67,52.5-24.24    c16.38-4.93,33.3-10.03,60.13-28.55c0.44-0.3,3.26-2.28,4.21-2.96c7.96,13.53,15.04,27.7,21.07,42.25    c1.28,3.08,4.25,4.94,7.39,4.94c2.47,0,5.8-1.77,6.71-2.2c18.52-8.67,32.42-24.95,38.11-44.67c5.67-19.64,2.59-40.76-8.45-57.95    c-1.37-2.12-2.75-4.22-4.13-6.3c0.03-0.04,0.07-0.08,0.1-0.13c0.87-1.04,1.76-2.11,2.68-3.2c6.19-7.36,13.92-11.57,21.22-11.57    c5.12,0,9.8,2.08,13.91,6.19l31.49,31.49c1.5,1.5,3.54,2.34,5.66,2.34c2.12,0,4.16-0.84,5.66-2.34l55.58-55.59    C464.815,218.375,464.815,213.305,461.685,210.185z M218.905,78.575l-0.01-0.01l-14.97-14.98l44.27-44.27l14.98,14.98    L218.905,78.575z M117.445,166.825c9.76-16.95,27.83-27.56,47.8-27.56c10.44,0,20.65,3.01,29.52,8.71    c1.01,0.65,2.02,1.31,3.03,1.97c-1.88,1.44-3.76,2.85-5.68,4.3c-10.82,8.12-21.98,16.5-35.51,32.9    C144.005,179.585,130.885,172.765,117.445,166.825z M322.585,314.115c-3.97,13.78-13.11,25.39-25.38,32.47    c-5.8-13.11-12.41-25.89-19.71-38.15c16.52-13.59,24.94-24.79,33.1-35.65c1.4-1.87,2.77-3.69,4.17-5.51    c0.43,0.66,0.86,1.32,1.28,1.98C324.595,282.555,326.975,298.915,322.585,314.115z M349.385,223.405    c-12.03,0-24.22,6.29-33.46,17.26c-1.47,2.01-5.25,6.31-6.46,7.72c-4.4,5.13-8.09,10.04-11.66,14.79    c-8.75,11.64-17.01,22.63-35.44,36.86c-3.01,2.32-6.29,4.72-9.74,7.13c-25.49,17.81-40.74,22.4-56.89,27.26    c-16.64,5.01-33.85,10.18-61.43,29.44c-2.57,1.8-3.86,4.93-3.29,8.01c0.37,2.01,8.18,43.14,30.82,75.09    c-17.25-2.02-43.43-7.9-57.44-24.87c-9.24-11.18-12.12-26.16-8.59-44.51c0.5-2.6-0.32-5.29-2.2-7.17    c-1.51-1.51-3.55-2.34-5.65-2.34c-0.51,0-1.01,0.05-1.52,0.15c-5.09,0.98-9.98,1.48-14.52,1.48c-13.85,0-24.87-4.42-33.71-13.51    c-14.2-14.6-19.33-37.94-21.18-54.01c32.09,22.82,73.83,31.25,75.87,31.65c3.11,0.61,6.29-0.67,8.11-3.27    c19.26-27.59,24.43-44.8,29.44-61.44c4.86-16.14,9.45-31.4,27.25-56.89c2.45-3.52,4.9-6.86,7.28-9.94    c14.18-18.31,25.14-26.54,36.74-35.26c4.8-3.6,9.76-7.32,14.94-11.78c0,0,5.69-4.89,8.54-7.48c10.08-9.19,15.77-20.49,16.03-31.82    c0.23-9.63-3.51-18.57-10.8-25.86l-0.21-0.21l44.27-44.27l19.31,19.31c8.69,8.69,20.68,13.68,32.87,13.68    c1.17,0,5.1-0.23,5.9-0.23c11.45,0,23.94,6.19,35.17,17.42c12.77,12.76,20.45,28.39,19.58,39.81c-0.76,9.88-0.15,22.68,11.3,34.13    l19.8,19.81l-44.27,44.28C367.115,227.005,358.565,223.405,349.385,223.405z M400.445,260.115l-14.98-14.98l44.27-44.28    l14.98,14.98L400.445,260.115z"/>
		<path d="M316.933,182.143c-2.048,0-4.095-0.781-5.657-2.343l-27.042-27.042c-3.124-3.125-3.124-8.189,0-11.314    c3.125-3.123,8.189-3.123,11.314,0l27.042,27.042c3.124,3.125,3.124,8.189,0,11.314    C321.028,181.362,318.981,182.143,316.933,182.143z"/>
		<path d="M164.533,323.369c-3.188,0-6.201-1.919-7.443-5.064c-1.622-4.109,0.394-8.756,4.504-10.379    c8.763-3.459,16.379-5.752,23.744-7.97c15.046-4.528,25.902-7.796,46.663-22.293c2.991-2.091,5.806-4.15,8.36-6.117    c3.502-2.696,8.524-2.043,11.22,1.457s2.043,8.523-1.458,11.22c-2.748,2.116-5.762,4.322-8.958,6.557    c-22.862,15.964-35.993,19.916-51.196,24.491c-7.068,2.129-14.359,4.323-22.5,7.538    C166.505,323.188,165.511,323.369,164.533,323.369z"/>
	</g>
</g>















</svg>